<svg xmlns="http://www.w3.org/2000/svg" viewBox="0 0 960 540" role="img" aria-hidden="true">
  <defs>
    <linearGradient id="grad-performance-young" x1="0%" y1="0%" x2="100%" y2="100%">
      <stop offset="0%" stop-color="#2D101B" />
      <stop offset="100%" stop-color="#4A1528" />
    </linearGradient>
  </defs>
  <rect width="960" height="540" fill="url(#grad-performance-young)" />
  <rect x="8.0" y="230.0" width="9.391304347826088" height="80.0" rx="3" fill="#C89A46" opacity="0.22" /><rect x="28.9" y="179.6" width="9.391304347826088" height="180.8" rx="3" fill="#C89A46" opacity="0.26" /><rect x="49.7" y="137.6" width="9.391304347826088" height="264.7" rx="3" fill="#C89A46" opacity="0.3" /><rect x="70.6" y="110.8" width="9.391304347826088" height="318.3" rx="3" fill="#C89A46" opacity="0.33999999999999997" /><rect x="91.5" y="103.5" width="9.391304347826088" height="332.9" rx="3" fill="#C89A46" opacity="0.38" /><rect x="112.3" y="117.2" width="9.391304347826088" height="305.7" rx="3" fill="#C89A46" opacity="0.22" /><rect x="133.2" y="149.8" width="9.391304347826088" height="240.5" rx="3" fill="#C89A46" opacity="0.26" /><rect x="154.1" y="196.5" width="9.391304347826088" height="147.0" rx="3" fill="#C89A46" opacity="0.3" /><rect x="175.0" y="235.2" width="9.391304347826088" height="69.7" rx="3" fill="#C89A46" opacity="0.33999999999999997" /><rect x="195.8" y="188.1" width="9.391304347826088" height="163.8" rx="3" fill="#C89A46" opacity="0.38" /><rect x="216.7" y="150.2" width="9.391304347826088" height="239.6" rx="3" fill="#C89A46" opacity="0.22" /><rect x="237.6" y="127.9" width="9.391304347826088" height="284.3" rx="3" fill="#C89A46" opacity="0.26" /><rect x="258.4" y="125.0" width="9.391304347826088" height="289.9" rx="3" fill="#C89A46" opacity="0.3" /><rect x="279.3" y="142.6" width="9.391304347826088" height="254.9" rx="3" fill="#C89A46" opacity="0.33999999999999997" /><rect x="300.2" y="178.0" width="9.391304347826088" height="183.9" rx="3" fill="#C89A46" opacity="0.38" /><rect x="321.0" y="226.2" width="9.391304347826088" height="87.5" rx="3" fill="#C89A46" opacity="0.22" /><rect x="341.9" y="249.6" width="9.391304347826088" height="40.8" rx="3" fill="#C89A46" opacity="0.26" /><rect x="362.8" y="202.4" width="9.391304347826088" height="135.3" rx="3" fill="#C89A46" opacity="0.3" /><rect x="383.7" y="164.9" width="9.391304347826088" height="210.2" rx="3" fill="#C89A46" opacity="0.33999999999999997" /><rect x="404.5" y="143.3" width="9.391304347826088" height="253.3" rx="3" fill="#C89A46" opacity="0.38" /><rect x="425.4" y="141.2" width="9.391304347826088" height="257.6" rx="3" fill="#C89A46" opacity="0.22" /><rect x="446.3" y="158.9" width="9.391304347826088" height="222.2" rx="3" fill="#C89A46" opacity="0.26" /><rect x="467.1" y="193.7" width="9.391304347826088" height="152.6" rx="3" fill="#C89A46" opacity="0.3" /><rect x="488.0" y="240.1" width="9.391304347826088" height="59.8" rx="3" fill="#C89A46" opacity="0.33999999999999997" /><rect x="508.9" y="245.3" width="9.391304347826088" height="49.5" rx="3" fill="#C89A46" opacity="0.38" /><rect x="529.7" y="195.7" width="9.391304347826088" height="148.6" rx="3" fill="#C89A46" opacity="0.22" /><rect x="550.6" y="156.9" width="9.391304347826088" height="226.2" rx="3" fill="#C89A46" opacity="0.26" /><rect x="571.5" y="134.8" width="9.391304347826088" height="270.4" rx="3" fill="#C89A46" opacity="0.3" /><rect x="592.3" y="132.5" width="9.391304347826088" height="275.0" rx="3" fill="#C89A46" opacity="0.33999999999999997" /><rect x="613.2" y="150.1" width="9.391304347826088" height="239.8" rx="3" fill="#C89A46" opacity="0.38" /><rect x="634.1" y="184.5" width="9.391304347826088" height="171.1" rx="3" fill="#C89A46" opacity="0.22" /><rect x="655.0" y="229.7" width="9.391304347826088" height="80.6" rx="3" fill="#C89A46" opacity="0.26" /><rect x="675.8" y="218.2" width="9.391304347826088" height="103.7" rx="3" fill="#C89A46" opacity="0.3" /><rect x="696.7" y="168.3" width="9.391304347826088" height="203.4" rx="3" fill="#C89A46" opacity="0.33999999999999997" /><rect x="717.6" y="130.7" width="9.391304347826088" height="278.5" rx="3" fill="#C89A46" opacity="0.38" /><rect x="738.4" y="111.0" width="9.391304347826088" height="318.0" rx="3" fill="#C89A46" opacity="0.22" /><rect x="759.3" y="111.8" width="9.391304347826088" height="316.5" rx="3" fill="#C89A46" opacity="0.26" /><rect x="780.2" y="132.7" width="9.391304347826088" height="274.7" rx="3" fill="#C89A46" opacity="0.3" /><rect x="801.0" y="170.1" width="9.391304347826088" height="199.9" rx="3" fill="#C89A46" opacity="0.33999999999999997" /><rect x="821.9" y="217.8" width="9.391304347826088" height="104.3" rx="3" fill="#C89A46" opacity="0.38" /><rect x="842.8" y="193.4" width="9.391304347826088" height="153.3" rx="3" fill="#C89A46" opacity="0.22" /><rect x="863.7" y="147.2" width="9.391304347826088" height="245.6" rx="3" fill="#C89A46" opacity="0.26" /><rect x="884.5" y="114.6" width="9.391304347826088" height="310.8" rx="3" fill="#C89A46" opacity="0.3" /><rect x="905.4" y="100.7" width="9.391304347826088" height="338.6" rx="3" fill="#C89A46" opacity="0.33999999999999997" /><rect x="926.3" y="107.6" width="9.391304347826088" height="324.7" rx="3" fill="#C89A46" opacity="0.38" /><rect x="947.1" y="134.5" width="9.391304347826088" height="271.0" rx="3" fill="#C89A46" opacity="0.22" />
</svg>